<svg width="65" height="64" viewBox="0 0 65 64" fill="none" xmlns="http://www.w3.org/2000/svg">
<rect x="0.5" width="64" height="64" rx="11.9783" fill="#CCB9F6"/>
<path d="M24.4231 17.689C24.4231 19.5883 22.8733 21.128 20.9615 21.128C19.0498 21.128 17.5 19.5883 17.5 17.689C17.5 15.7897 19.0498 14.25 20.9615 14.25C22.8733 14.25 24.4231 15.7897 24.4231 17.689Z" fill="#05010B"/>
<path d="M18.0769 27.1463C18.0769 25.5636 19.3684 24.2805 20.9615 24.2805C22.5547 24.2805 23.8462 25.5636 23.8462 27.1463V46.6341C23.8462 48.2169 22.5547 49.5 20.9615 49.5C19.3684 49.5 18.0769 48.2169 18.0769 46.6341V27.1463Z" fill="#05010B"/>
<path d="M29.6154 27.1463C29.6154 25.5636 30.9069 24.2805 32.5 24.2805C34.0931 24.2805 35.3846 25.5636 35.3846 27.1463V46.6341C35.3846 48.2169 34.0931 49.5 32.5 49.5C30.9069 49.5 29.6154 48.2169 29.6154 46.6341V27.1463Z" fill="#05010B"/>
<path d="M44.0385 24.2805C42.4453 24.2805 41.1538 25.5636 41.1538 27.1463V46.6341C41.1538 48.2169 42.4453 49.5 44.0385 49.5C45.6316 49.5 46.9231 48.2169 46.9231 46.6341V27.1463C46.9231 25.5636 45.6316 24.2805 44.0385 24.2805Z" fill="#05010B"/>
<path d="M32.5 21.128C33.4915 21.128 34.3856 20.7139 35.0167 20.0502L35.0194 20.0474C35.0966 19.9661 35.1707 19.8818 35.2447 19.7975L35.2647 19.7747C35.9736 19.0831 36.8831 18.4114 38.1065 18.4055L38.125 18.4055C38.1744 18.4055 38.2224 18.4042 38.2692 18.4018C38.316 18.4042 38.3641 18.4055 38.4134 18.4055C39.4748 18.4055 40.2135 18.791 40.8486 19.3363C41.0111 19.4757 41.1524 19.6365 41.2937 19.7974C41.3687 19.8827 41.4436 19.9681 41.5218 20.0502C42.1528 20.7139 43.047 21.128 44.0385 21.128C45.9502 21.128 47.5 19.5883 47.5 17.689C47.5 15.7897 45.9502 14.25 44.0385 14.25C42.9792 14.25 42.031 14.7227 41.396 15.4674C41.3119 15.5661 41.2333 15.6695 41.1606 15.7773C40.7064 16.383 39.8385 17.1159 38.4134 17.1159C38.3639 17.1159 38.3158 17.1168 38.2692 17.1185C38.2227 17.1168 38.1746 17.1159 38.125 17.1159C36.6999 17.1159 35.832 16.383 35.3778 15.7773C34.7568 14.8563 33.6997 14.25 32.5 14.25C30.5882 14.25 29.0385 15.7897 29.0385 17.689C29.0385 19.5883 30.5882 21.128 32.5 21.128Z" fill="#05010B"/>
</svg>
